/* XPM */
static char *_515644279213[] = {
/* columns rows colors chars-per-pixel */
"64 64 235 2 ",
"   c #010101",
".  c #0B0A07",
"X  c #0C0C0C",
"o  c #070708",
"O  c #12110C",
"+  c #1A180F",
"@  c #0F0F10",
"#  c #141412",
"$  c #1C1C1B",
"%  c #1B1912",
"&  c #100F08",
"*  c #24231D",
"=  c #2D2A19",
"-  c #262416",
";  c #312E1B",
":  c #38341C",
">  c #1F1F21",
",  c #242423",
"<  c #2D2C24",
"1  c #2C2C2C",
"2  c #312F26",
"3  c #3D3923",
"4  c #33322C",
"5  c #3D3B2C",
"6  c #383526",
"7  c #353432",
"8  c #3B3A34",
"9  c #3B3A35",
"0  c #2F2F30",
"q  c #423E24",
"w  c #413D29",
"e  c #413F35",
"r  c #45412B",
"t  c #4D482C",
"y  c #474226",
"u  c #524D2C",
"i  c #45433C",
"p  c #49463A",
"a  c #4C4A3C",
"s  c #494635",
"d  c #514D37",
"f  c #5A5532",
"g  c #585439",
"h  c #5C552C",
"j  c #625C35",
"k  c #615C3B",
"l  c #7F5624",
"z  c #6A633B",
"x  c #6A6336",
"c  c #756D3D",
"v  c #7B733E",
"b  c #4C4B42",
"n  c #4E4E4C",
"m  c #504F44",
"M  c #54534B",
"N  c #58574B",
"B  c #5C5A4C",
"V  c #585543",
"C  c #5B5A53",
"Z  c #575753",
"A  c #635E44",
"S  c #615F54",
"D  c #6A6546",
"F  c #746D43",
"G  c #736D4B",
"H  c #7D754C",
"J  c #7A7247",
"K  c #666355",
"L  c #6C6A5C",
"P  c #6A6757",
"I  c #736F57",
"U  c #76725C",
"Y  c #7A7556",
"T  c #6A6962",
"R  c #716F63",
"E  c #797665",
"W  c #7B7B77",
"Q  c #845B26",
"!  c #996D28",
"~  c #8B6838",
"^  c #967231",
"/  c #AA7927",
"(  c #A2793C",
")  c #847B48",
"_  c #987948",
"`  c #837C55",
"'  c #A27B40",
"]  c #817C66",
"[  c #AD822E",
"{  c #B7872C",
"}  c #AD883B",
"|  c #B58C33",
" . c #B48C3C",
".. c #B88D34",
"X. c #B9943B",
"o. c #C59A39",
"O. c #C38F2D",
"+. c #CBA33C",
"@. c #D3A73D",
"#. c #8C834B",
"$. c #898046",
"%. c #93894C",
"&. c #98884A",
"*. c #8B8354",
"=. c #8A835B",
"-. c #948B53",
";. c #998B58",
":. c #9B9155",
">. c #9B915B",
",. c #9B914C",
"<. c #A9864B",
"1. c #A88848",
"2. c #B18D48",
"3. c #BB9946",
"4. c #A68A54",
"5. c #AC8D52",
"6. c #A88B57",
"7. c #A59A5D",
"8. c #A99D5B",
"9. c #A99755",
"0. c #B3945A",
"q. c #B69B5C",
"w. c #B79956",
"e. c #AF934D",
"r. c #ADA15C",
"t. c #AEA156",
"y. c #B2A55B",
"u. c #BBA15D",
"i. c #B7A758",
"p. c #BFA854",
"a. c #8A8567",
"s. c #9B9363",
"d. c #948F72",
"f. c #A49A64",
"g. c #A99E69",
"h. c #BB9D62",
"j. c #A49E77",
"k. c #AEA469",
"l. c #BEA264",
"z. c #BBAD63",
"x. c #B5AA6C",
"c. c #B6A865",
"v. c #BEB064",
"b. c #BDB26B",
"n. c #ACA478",
"m. c #B9AD75",
"M. c #BDB376",
"N. c #C59E43",
"B. c #C19E53",
"V. c #C8A648",
"C. c #D4AD43",
"Z. c #D5AD48",
"A. c #D7B34C",
"S. c #C3A55B",
"D. c #C5A95C",
"F. c #CAAC5C",
"G. c #C6A853",
"H. c #D2AE56",
"J. c #CDB45D",
"K. c #C9B052",
"L. c #D5B559",
"P. c #C3A663",
"I. c #C5AB64",
"U. c #CAAD63",
"Y. c #C5AC6B",
"T. c #CBAD6B",
"R. c #C2A669",
"E. c #C2B465",
"W. c #C5B56C",
"Q. c #CDB36C",
"!. c #C6B96C",
"~. c #CBBD6B",
"^. c #CBB863",
"/. c #D2B662",
"(. c #D4BA65",
"). c #DBBC64",
"_. c #D4B96A",
"`. c #CBBE72",
"'. c #C7B776",
"]. c #D0B971",
"[. c #C8AD70",
"{. c #E0BE61",
"}. c #E3C75E",
"|. c #CFC16C",
" X c #DCC365",
".X c #DCC966",
"XX c #D4C56D",
"oX c #DDC36A",
"OX c #D9C96C",
"+X c #CDC178",
"@X c #D4C672",
"#X c #DDCD74",
"$X c #DBCC7B",
"%X c #D6C677",
"&X c #DFD078",
"*X c #E2CA64",
"=X c #E1C56B",
"-X c #E4CD6A",
";X c #E0C466",
":X c #E4D26D",
">X c #EBD66C",
",X c #EDD96D",
"<X c #E4CA72",
"1X c #E3D375",
"2X c #EAD774",
"3X c #ECDA74",
"4X c #E3D47A",
"5X c #ECDC7B",
"6X c #EBD57C",
"7X c #F1DD77",
"8X c #F4E37C",
"9X c #F9E67E",
"0X c #FFEC7C",
"qX c #F7E575",
"wX c #FFF07D",
"eX c #EFE07E",
"rX c #999688",
"tX c #A19D8B",
"yX c #B3AC83",
"uX c #A8A59F",
"iX c #C6BD86",
"pX c #D5C986",
"aX c #ECDC84",
"sX c #E6D886",
"dX c #F1DD87",
"fX c #E9DC91",
"gX c #F5E482",
"hX c #F8E783",
"jX c #FFED84",
"kX c #FDED8A",
"lX c #F4E588",
"zX c #FFF086",
"xX c #FFF289",
"cX c #F4E68F",
"vX c None",
/* pixels */
"vXvXvXvXvXvXvXvXvXvXvXvXvXvXvXvXvXvXvXvXvXvXvXvXvXvXvXvXvX[ |  . . . .[ vXvXvXvXvXvXvXvXvXvXvXvXvXvXvXvXvXvXvXvXvXvXvXvXvXvXvXvX",
"vXvXvXvXvXvXvXvXvXvXvXvXvXvXvXvXvXvXvXvXvXvXvXvX| X.3.3.3.p.G.G.D.F.F.F.U.D.S.w. .vXvXvXvXvXvXvXvXvXvXvXvXvXvXvXvXvXvXvXvXvXvXvX",
"vXvXvXvXvXvXvXvXvXvXvXvXvXvXvXvXvXvXvXvXvX..X.X.X.p.K.L.}..X:X,X.XoX-X.X X)./.(.Q.I.u.} vXvXvXvXvXvXvXvXvXvXvXvXvXvXvXvXvXvXvXvX",
"vXvXvXvXvXvXvXvXvXvXvXvXvXvXvXvXvXvX[ X.3.2.V.L.>XqXE.i.8Xc t.wX%.t u j E.zXqX-XOX X(.!.P.2.vXvXvXvXvXvXvXvXvXvXvXvXvXvXvXvXvXvX",
"vXvXvXvXvXvXvXvXvXvXvXvXvXvXvXvX[ X.X.2.G.(.y.y.8XzX$.: i.: v wX&X*.= f.1X3Xc y u 9.7X:X_.Q.l.} vXvXvXvXvXvXvXvXvXvXvXvXvXvXvXvX",
"vXvXvXvXvXvXvXvXvXvXvXvXvXvXvX.. .} p.3X#Xh V ` |.wXt.+ g 2 j wXzX,.: 8XwX,.= x.>.*.qXwX2X X/.E.w.( vXvXvXvXvXvXvXvXvXvXvXvXvXvX",
"vXvXvXvXvXvXvXvXvXvXvXvXvX[ X.} e.v.1XwX%.y W.k q #XE.= %X*.u 8XwX#.t 8XwX%.; OX1X8XwX9.y t ,..XD.l.1.vXvXvXvXvXvXvXvXvXvXvXvXvX",
"vXvXvXvXvXvXvXvXvXvXvXvX{ N. . XhXf c zXr.; :.D ; ~.#X*.&X&X+X9X0X&X|.9X0X2XD 3 y |.:X: -.k.= |.qXJ.l.5.vXvXvXvXvXvXvXvXvXvXvXvX",
"vXvXvXvXvXvXvXvXvXvXvX| +.3.i.eXjXy.= |.hX*.m G '.hX0XzXjXjXzXhXjX0XjX0X0X0XgX+X'.5XOX= t.|.= p.wXJ.i.v.w.Q vXvXvXvXvXvXvXvXvXvX",
"vXvXvXvXvXvXvXvXvXvX| V.L.3Xk $.jXhXf j hXjXlXhXzX0XjXhX0X0X0X0X0XjX0X0X0X0X0X0XzX0X9X:.r 5 z 8X:Xq %.:XU.q.Q vXvXvXvXvXvXvXvXvX",
"vXvXvXvXvXvXvXvXvX| C.K.v H ) - 8.jX~.s.gXjX0X0X0X0XjX0XjX0X0XjX0X0XjX0X0X0X0X0X0X0XwX0X$X'.8XqXx t 7XwX.XF.q.Q vXvXvXvXvXvXvXvX",
"vXvXvXvXvXvXvXvX[ C.}.$Xq , d * 3 #XjXjXjXjXjXjX0XjX0XjX0XjXjX0XjXjX0XjX0X0X0X0X0X0X0X0XwX0XwXt.; |.wX:Xh ~ ^.0.Q vXvXvXvXvXvXvX",
"vXvXvXvXvXvXvX! V.V.4XzX|.w f.pX'.gXjXjXjXjX0XjXjX0XhXjXjX0XjXjX0XhXjX0XjX0X0X0X0X0X0X0X0X0X0X&Xb.wX:Xj + x .XJ.4.vXvXvXvXvXvXvX",
"vXvXvXvXvXvXvXV.C.x z.xXxX>.z 8XjXjXjXjXjXjXjXjXjX0XjX0XhX0X0X0X0XjXhX0X0X0X0X0X0X0X0X0X0X0XwXcXpX&Xx z t x x &._.( vXvXvXvXvXvX",
"vXvXvXvXvXvX| @.|.y v |.1XeXaXzX0XjXjXjXjXjXhXjXjX0X0XjX0XjX0XhXjX0XjXjXjXzX0X0X0X0X0X0X0XhXpXtX] :X|.&Xy + D 2X*XU.! vXvXvXvXvX",
"vXvXvXvXvX! C.,.y = < 5 F 5XzXzXjXjXjXjXjX0XjXjXjXjXjX0XjX0XjX0X0XjX0X0X0XhX0X0X0X0X0XhXpXtXW T k.9XwX3Xq g 3X0XqX XB.vXvXvXvXvX",
"vXvXvXvXvXN.}.aX=.# D pXsXzXjXjXjXjXjXjXjXjXjXjXjXjXjXjX0XjX0XjXjX0XjX0XjXjXzXhXhXcXpXtXW T T a.j.&XwXqX^.3XwX0X0X>X). .vXvXvXvX",
"vXvXvXvX/ *XjXzXkXf.t @XzXzXjXjXjXjXjXjX0XjXjXjXjXjX0XjXjX0XjX0X0XjX0XjXzXdXiXyXyXa.T C K R R C J eXwXwX0X0X0X0XwXqX XL.{ vXvXvX",
"vXvXvXvXV.8XjXjXjXkXsXjXzXjXjXjXjXjXjXjXjXjXjX9XkXkXkXjXjXjX0XjXjX9XlXsXn.L n C C C K R L C M I XX0X0X0X0X0X0X0X0X0X,X Xo.vXvXvX",
"vXvXvX/ oXkXjXzXkXjXjXxXjXzXzXjXjXjX0XjXjXjXjXjX'.n.n.iXpXaX0XhXhXpXR Z 9 i N K L L S N B K U L v.0X0X0X0X0X0X0X0X0X0X}.L.vXvXvX",
"vXvXvXo.5XxXjXjXzXjXkXjXjXxXxXjXxXjXjXjXjXjXhXm.` Z Z C N k.hXm.E b 9 b B P I K S K U U L n 7 J 3X0X0X0X0X0X0X0X0X0X0X>XoXo.vXvX",
"vXvX/ A.lXkXjXxXkXjXzXjXkXjXjXjXjXjXjXjXjX7Xk.m i 0 1 7 i B f.i 1 B R E L K K L K N b e i V I |.wX0X0X0X0X0X0X0X0X0X0XqX XH.vXvX",
"vXvX..<XkXjXjXxXxXjXkXjXjXzXkXzXkXjXjXjXjX8Xk.V > , , , , 8 G e 7 E P K C m b i b m N Z n 7 g OX0X0X0X0X0X0X0X0X0X0X0X0X*X).o.vX",
"vXvX+.dXkXjXkXjXjXjXzXzXkXjXjXzXjXzXjXjXjXjX4Xs $ $ * $ $ , 5 *.d N P A B N n b b 9 9 7 i D |.zX0X0X0X0X0X0X0X0X0X0X0X0X,X;Xo.vX",
"vXvXA.cXkXhXkXkXjXjXjXkXjXkXjXkXkXjXxXjXjXzXz.$ < f r , # $ * F r., P U K S m a b b b 9 8 V OX0X0X0X0X0X0X0X0X0X0X0X0X0XqX}.Z.vX",
"vXO.;XkXjXjXjXjXjXkXjXjXxXjXzXjXzXjXzXjXzXhXJ * J XXa 7 # # * -.5Xy 7 K S m i e 7 7 7 4 g J.0X0X0X0X0X0X0X0X0X0X0X0XqX0XqX}.L.vX",
"vXO.-XkXjXkXkXjXjXjXkXjXzXjXxXjXxXkXlXxXxXkX@X) W.7.n , @ # = 7.4X6 1 U B m b b i , < s !.wXjX0X0X0X0X0X0X0X0X0X0X0X0X0X0X*X;X+.",
"vXo.aXkXkXhXjXjXkXkXjXzXkXjXjXzX+XY ` E ] U k.gX%Xi 7 X o # u !.J @ p U K i 5 7 7 5 z i.9X0X0X0X0X0X0X0X0X0X0X0X0X0X0X0X0X-XoXC.",
"vX@.dXkXkXjXjXkXjXjXjXjXkXjXzXfXtXa.XX8.-.j # G a o o o . 5 Y V # 5 m B N N a 8 5 D #XzXjX0XhX0X0X0X0X0X0X0X0X0X0X0X0X0X0X>X*XK.",
"vX@.dXkXkXjXjXkXjXkXkXjXkXjXjX'.yX+XzXzXxX5Xf + .     o . , $ # a N 5 e a a i 5 H 2XwXjX0X0XjX0X0X0X0X0X0X0X0X0X0X0X0X0X0X,X;XJ.",
"vXC.lXkXjXjXjXjXjXjXkXjXzXxXjXhXhXjXjXxXjXxX5Xg @             V K a 8 2 < e a :.1XlXlXjXjX0X0XjX0X0X0X0X0X0X0X0X0X0X0X0XwX,XoXL.",
"vXZ.dXkXjXkXkXjXkXjXjXkXjXjXkXzXkXkXzXjXxXlXpXD .             # < , 2 e a A r.%X=.p m s.gXhX0X0X0X0X0X0X0X0X0X0X0X0X0X0XwX,XoXvX",
"vXC.7XkXjXjXhXjXjXkXkXjXkXjXjXjXjXzXzXzX+XV % o O O                 $ a *.OX4XA     @ $ ` 8XjX0XjX0X0X0X0X0X0X0X0X0X0X0X0X,XoXvX",
"vXC.}.jXkXkXkXjXkXhXjXjXjXjXkXkXkXjXkXkXf : z 9.:.*                   # D pXD           - ~.jX0X0XjX0X0X0X0X0X0X0X0X0X0X0X>X=XvX",
"vX@.A.jXjXjXjXkXjXjXjXkXjXkXjXjXzXjXxXb.g @XxXxXhXz.z 3 - + o           X 2 f #.+       # G 2XjX0XjX0X0X0X0X0X0X0X0X0X0X0X-X=XvX",
"vX+.C.dXkXhXjXkXjXkXjXkXjXjXkXjXjXzX4Xg v.xXjXzXzXzXjXhX>.< 4 -         , d 2X@Xf O       6 2XjXjX0XhXjX0X0X0X0X0X0X0X0X0X=X<XvX",
"vXo.C.7XkXjXjXjXhXjXkXjXjXhXkXjXkXkX#.#.zXjXxXjXzXxXjX5X3     + .       $ F jX9XOX= +     + XX0X0XjX0XjX0X0X0X0X0X0X0X0X0XoX<XvX",
"vX{ Z.;XkXjXkXjXkXjXkXjXkXjXjXkXjXjXh E sXzXjXkXjXjXxX&X-     o %       o #.jXjX0Xc 3 .   - c.jXjX0XjX0XjX0X0X0X0X0X0X0XqX).<XvX",
"vX/ Z.L.jXjXkXjXjXjXhXkXkXjXjXjXkXjX>.rX%XzXjXxXzXkXzXhXc     ; 9.;     X E.zXjXjX#Xi.; O ; 1X0X0XjX0XhX0X0X0X0X0X0X0X0X3X_.vXvX",
"vXvXC.Z.dXkXjXkXhXkXjXjXjXhXkXkXjXkX4Xk.gXxXjXjXjXjXjXzXeXx   3 5X|.u & X s.gXjXjXjXjX,.#.j c.jXjX0XjX0XjX9X0X0X0X0X0X0X=XoXvXvX",
"vXvXo.V.2XjXjXkXkXjXhXkXjXjXjXjXjXkXjXjXkXkXjXjXxXjXkXjXxX@X+ = @XzX8XE.t $ :.zXjXjXjX0XhX8X8X0X0XhX0XjX0XhX0X0X0X0X0X9X(.<XvXvX",
"vXvX/ H.H.kXjXjXjXjXkXjXjXkXkXhXjXjXjXkXjXjXjXkXjXzXjXxXsXD y E.jXjXjXzXy.. &.zXjXjX0XjX0XjX0XjXjX0XjX0XjX0XjX0X0X0X0X,X/.vXvXvX",
"vXvXvXZ.V.5XkXjXjXkXjXkXhXjXkXkXkXjXjXjXkXjXjXkXjXjXxX+XV ) 5XzXjXjX0XjXv.; XXjXjXjXjXjXhX0XjX0X0XjXwXjX0XjXjX0X0X0X0X(._.vXvXvX",
"vXvXvX..H./.kXjXhXkXjXjXkXjXjXjXjXkXkXjXjXxXjXjXjXkXM.5 %.hXzXhXjXjXjXzX&.v jXjX0XjXjXjX0XjX0XjXjX0XhX0XjX0X0XjX0X0X7XF.#XvXvXvX",
"vXvXvX! H.3.dXjXjXkXjXjXjXkXjXkXjXkXkXjXjXjXkXzXzXsXuXU 5XzXkXjXjXjXjXhXz E.jXjXjXjXjXjXjX9XjX0X0XzX0X0XjX0XhX0X0X0X^._.vXvXvXvX",
"vXvXvXvX..G.D.kXjXkXjXkXkXhXjXjXjXjXjXjXkXjXjXjXjX4XM.+XjXzXjXxXjXzXjXv.q 2XjXjXjXjX0XjXjXjX0XjXjX9X0XjX0XjX0XjXjX3XD.oXvXvXvXvX",
"vXvXvXvXvXH.2.4XkXjXjXjXjXjXkXjXkXjXjXkXjXkXxXjXjXzXzXzXjXxXzXjXjXzXgXtX] gXjXjXjX9XjXjXjX0XjX0XjX0XjX0XjX0XjX0XhXF.).oXvXvXvXvX",
"vXvXvXvXvX[ U.5.dXjXkXkXhXkXjXjXkXjXjXkXjXjXkXjXzXkXjXjXkXjXjXkXjXxX$XyXm.5XjXjXjXjXjXjXjXjXjX9X0XjXwXhX0XjX0XzX XF.).Q.vXvXvXvX",
"vXvXvXvXvXvXN.0.h.kXjXjXgXjXkXjXjXjXkXkXjXjXjXjXkXkXjXjXkXzXjXjXkXjXzXhX9XjX0XjXjXjXjXjXjXjXjX0XjXwXjX0X0XjX0X2XS.).^.vXvXvXvXvX",
"vXvXvXvXvXvX! /.4.~.kX@XH 7.hXjXkXjXjXjXjXkXkXjXjXjXjXkXjXzXjXxXjXxXjXjXjXjXjXjXjXjXjX0XjXjXjX0X0XhX0XjXjX0X8XS.)./.q.vXvXvXvXvX",
"vXvXvXvXvXvXvXD.Q.<.<Xb.H s.<XkXjXjXkXjXjXjXkXkXjXzXjXkXkXjXjXzXzXjXjXjXjXjXjXjX9XjXjXjXjXjXjXjXwX8XXX9XjX9XJ./.(.u.vXvXvXvXvXvX",
"vXvXvXvXvXvXvX5.U.T.4.].M.;.J W.kXkXjXjXkXjXjXhXjXkXjXjXjXxXjXkXzXkXjXjXjXjXjXjXjXjXjXjXjX9XjXjXzX:.k r.9XJ././.u.vXvXvXvXvXvXvX",
"vXvXvXvXvXvXvXvX5.I.Y.5.#X;.D #.Q.hXjXkXjXjXjXkXkXjXzXjXkXzXzXjXjXjXkXjXjXjXjXjXjXjXjXjXjXjXjX1X~.v.J f.L./.J.u.vXvXvXvXvXvXvXvX",
"vXvXvXvXvXvXvXvXvX0.P.Y.0.z.'.*.w ,.5XjXkXkXjXjXkXjXkXjXjXjXkXjXjXxXjXzXzXjXjXjXjX9XjXjXjX8X#Xy.d :.`.F./.D.q.vXvXvXvXvXvXvXvXvX",
"vXvXvXvXvXvXvXvXvXvX0.R.Y.h.P.m.k ` J 8.hXkXkXjXjXjXkXjXxXjXzXjXkXjXkXzXjXzXjXjXjXjXjX9X4X-.J XX) W.D.J.S.q.vXvXvXvXvXvXvXvXvXvX",
"vXvXvXvXvXvXvXvXvXvXvX0.l.R.l.q.b.c.D ` Q.8.hXjXkXjXjXxXjXkXjXxXjXxXjXjXjXjXjXjXjX7XXXz.) `.) OXE.F.w.w.0.vXvXvXvXvXvXvXvXvXvXvX",
"vXvXvXvXvXvXvXvXvXvXvXvX5.h.R.[.P.q.%X$XG g _.) r.gX5XhXzXzXxXxXxXzXzXhXzXhXhXE.f.8.u 8.%.~.Q.D.S.e.6.4.vXvXvXvXvXvXvXvXvXvXvXvX",
"vXvXvXvXvXvXvXvXvXvXvXvXvXvXw.R.[.[.P.h.m.;.8.d G v.z |.>.:.b.|.|.c.5XxX@XF OXz G %X` y._.D.D.w.1.4._ vXvXvXvXvXvXvXvXvXvXvXvXvX",
"vXvXvXvXvXvXvXvXvXvXvXvXvXvXvX<.R.T.].[.I.I.z.g.x.>.D c.r.*.k.~ F F r.xXk.g >.k.=.z.(.U.D.w.5.6._ vXvXvXvXvXvXvXvXvXvXvXvXvXvXvX",
"vXvXvXvXvXvXvXvXvXvXvXvXvXvXvXvXvX5.h.T.Q.[.T.I.P.I.W.+Xb.|.`.c.x.a.#X8XW.W.z.F.U.F.D.q.5.4.&.~ vXvXvXvXvXvXvXvXvXvXvXvXvXvXvXvX",
"vXvXvXvXvXvXvXvXvXvXvXvXvXvXvXvXvXvXvX<.0.P.T.Q.].Q.U.U.U.I.F.U.U.U.U.D.D.F.U.D.S.q.0._ _ vXvXvXvXvXvXvXvXvXvXvXvXvXvXvXvXvXvXvX",
"vXvXvXvXvXvXvXvXvXvXvXvXvXvXvXvXvXvXvXvXvX( 5.q.l.P.R.U.T.T.U.U.U.U.U.S.P.u.q.5.&._ ~ vXvXvXvXvXvXvXvXvXvXvXvXvXvXvXvXvXvXvXvXvX",
"vXvXvXvXvXvXvXvXvXvXvXvXvXvXvXvXvXvXvXvXvXvXvXvXvX' <.<.5.5.0.0.0.0.6.<.<._ ~ ~ vXvXvXvXvXvXvXvXvXvXvXvXvXvXvXvXvXvXvXvXvXvXvXvX",
"vXvXvXvXvXvXvXvXvXvXvXvXvXvXvXvXvXvXvXvXvXvXvXvXvXvXvXvXvXvXvXvXvXvXvXvXvXvXvXvXvXvXvXvXvXvXvXvXvXvXvXvXvXvXvXvXvXvXvXvXvXvXvXvX"
};
