/* XPM */
static char *_515644275545[] = {
/* columns rows colors chars-per-pixel */
"32 32 189 2 ",
"   c #020202",
".  c #0C0C09",
"X  c #11110F",
"o  c #1A180E",
"O  c #141413",
"+  c #1C1B13",
"@  c #292617",
"#  c #23221A",
"$  c #2E2B1A",
"%  c #262314",
"&  c #212120",
"*  c #2C2C28",
"=  c #3E3A26",
"-  c #39372E",
";  c #3A382C",
":  c #373732",
">  c #3E3C31",
",  c #403C25",
"<  c #413F36",
"1  c #534E2C",
"2  c #44433B",
"3  c #4D4A3E",
"4  c #454232",
"5  c #544F36",
"6  c #5C5635",
"7  c #5E5834",
"8  c #5F5938",
"9  c #555138",
"0  c #625C37",
"q  c #686035",
"w  c #69633C",
"e  c #736C3F",
"r  c #484743",
"t  c #4C4A41",
"y  c #504F44",
"u  c #575546",
"i  c #525148",
"p  c #59574A",
"a  c #5D5B4E",
"s  c #605D4E",
"d  c #615F51",
"f  c #6D6642",
"g  c #736C43",
"h  c #777044",
"j  c #7C7444",
"k  c #7C7449",
"l  c #636256",
"z  c #696757",
"x  c #686657",
"c  c #736F5A",
"v  c #767155",
"b  c #6E6C60",
"n  c #716F65",
"m  c #847C4C",
"M  c #9F7E47",
"N  c #827B52",
"B  c #B68C34",
"V  c #B58F3C",
"C  c #BC963B",
"Z  c #BD973A",
"A  c #C49838",
"S  c #C89A39",
"D  c #8B8149",
"F  c #93894C",
"G  c #9F914F",
"H  c #8B8251",
"J  c #938A56",
"K  c #998F54",
"L  c #968D59",
"P  c #9A8E59",
"I  c #9D9253",
"U  c #9F955C",
"Y  c #A3844C",
"T  c #A5884F",
"R  c #AB8A4F",
"E  c #B38D42",
"W  c #A4954F",
"Q  c #B79749",
"!  c #AC8B50",
"~  c #A09551",
"^  c #AC9453",
"/  c #A29857",
"(  c #A0965E",
")  c #A4995B",
"_  c #AB9E5D",
"`  c #AE9C53",
"'  c #B29453",
"]  c #B19F57",
"[  c #BD9C53",
"{  c #B89759",
"}  c #BA9C5B",
"|  c #AFA056",
" . c #ADA05C",
".. c #B3A55B",
"X. c #BBAA5B",
"o. c #948F70",
"O. c #9E997B",
"+. c #A09662",
"@. c #A79F6C",
"#. c #AA9F62",
"$. c #B09F62",
"%. c #BC9E61",
"&. c #AEA261",
"*. c #B3A462",
"=. c #BCA365",
"-. c #B5A862",
";. c #BAAB64",
":. c #B4AA6A",
">. c #BAAF6E",
",. c #B0A56A",
"<. c #BFB265",
"1. c #BFB36A",
"2. c #B7AE7B",
"3. c #B8AE75",
"4. c #C59E45",
"5. c #CEA442",
"6. c #C4A34D",
"7. c #C5A44A",
"8. c #D0A847",
"9. c #D4AF4F",
"0. c #C8A752",
"q. c #C9AA55",
"w. c #C1A65D",
"e. c #C3AF5A",
"r. c #C8AB5F",
"t. c #C3A254",
"y. c #CDB25B",
"u. c #D8B759",
"i. c #DBBB5C",
"p. c #D3B75B",
"a. c #C2A463",
"s. c #C5AC64",
"d. c #C8AD63",
"f. c #C4A768",
"g. c #C3AB6A",
"h. c #C3B565",
"j. c #CAB262",
"k. c #C9BC67",
"l. c #C4B66C",
"z. c #CBBD6C",
"x. c #D2B662",
"c. c #D3BB66",
"v. c #D9BE68",
"b. c #D1B96C",
"n. c #C1B673",
"m. c #C8BB77",
"M. c #C5BA7B",
"N. c #CFC067",
"B. c #DCC265",
"V. c #D5C56D",
"C. c #DCC569",
"Z. c #D7C86D",
"A. c #DACA6D",
"S. c #D3C064",
"D. c #CFC170",
"F. c #CCC07F",
"G. c #D3C571",
"H. c #DCCC73",
"J. c #D4C77D",
"K. c #D6C97F",
"L. c #D8CA7E",
"P. c #DFD073",
"I. c #E4CB6D",
"U. c #E8CE6F",
"Y. c #E6CA65",
"T. c #EBD36C",
"R. c #E4D474",
"E. c #EBD573",
"W. c #E4D57B",
"Q. c #EADB7C",
"!. c #EAD478",
"~. c #F2DC73",
"^. c #F0DA7A",
"/. c #EFE17F",
"(. c #F6E175",
"). c #F3E17C",
"_. c #F8E67D",
"`. c #FFEC7D",
"'. c #FFF07D",
"]. c #D4C881",
"[. c #ECDD83",
"{. c #EFE085",
"}. c #F5E381",
"|. c #F9E781",
" X c #F7E986",
".X c #FEED84",
"XX c #FFED89",
"oX c #FFF087",
"OX c None",
/* pixels */
"OXOXOXOXOXOXOXOXOXOXOXOXOXC 7.7.6.q.t.[ OXOXOXOXOXOXOXOXOXOXOXOX",
"OXOXOXOXOXOXOXOXOXOXC 6.p.e.<.N.| G C.c.e.r.[ OXOXOXOXOXOXOXOXOX",
"OXOXOXOXOXOXOXOXV q.` K R.e 8 ..| m N.j / E.j.w.OXOXOXOXOXOXOXOX",
"OXOXOXOXOXOXB 6.` k.D f K _ ..N.A.N.Z.j <.X.j ~ c.' OXOXOXOXOXOX",
"OXOXOXOXOXZ 7.| V.D D.:.W.`._..XoX`.`.P.W.| j I X.X.[ OXOXOXOXOX",
"OXOXOXOXZ y.e 9 &.H.}.oX.X`..X`.`.`.`.`.'._.P.Z.D A.W ' OXOXOXOX",
"OXOXOXB Q P. .&.Q..X.X.X`..X`..X.X`.`.`.`.`.'.Q.G.F 1 ^ ' OXOXOX",
"OXOXOXQ q h D.}..X`..X.X.X`..X`.`..X.X`.'.|.].O.n.V.7 k.B.E OXOX",
"OXOX7.E.J L }..X.X.X.X.X.X.X.X.X`. X}.J.M.o.n c l.`.E.`.(.p.OXOX",
"OXOXI.oX X}..X.X.X.X.X|.L.].Q..XW.,.c l l l l z A.`.`.`.'.T.7.OX",
"OX4._.oXoXoX.XXX.X.X.X&.p r c +.d a d l l a i N ).`.`.`.`.(.u.OX",
"OXi.XX.XXX.XoXoXoX.X XH & & * 9 u x a y r r t <.'.`.`.`.`.`.Y.OX",
"OXU.XX.X.XXXoX.XoXoX Xg w > O 8 k p d t < : h (.`.`.`.`.`.`.T.9.",
"S ^.XXXXXX.X.XXXJ.n.>.&.L * O h f t p < : f W..X`.`.`.`.`.`.~.u.",
"5.}.XX.X.X.X.X[.2.G...6 #   + 4 < 3 t 2 D ).'.`.`.`.`.`.`.`.(.i.",
"8.}.XX.X.XXXXX X XoX XN .     + > - 9 J ) :.).`.`.`.`.`.`.`.(.B.",
"4.~.XXXX.X.XXX.XoX}.D 8 4         # J g . . K `.`.`.`.`.`.`.(.B.",
"S Y.XX.XXXXX.X.XoX1.-.|.R.I , X     = J $   = Q.`..X`.`.`.`.~.v.",
"OXi..XXX.XXXXXXX{.J [.oXoXQ.$ . .   1 }.I o + Z..X`.`.`.`.`.E.OX",
"OX9.}.XX.X.X.XXX|.3./.oXoX_.e @ D % 7 |.).G 0 H..X`..X`.`.`.I.OX",
"OX4.E..X.XXX.X.X.X X.XoX.XoX:.w ).H.7 h.oX.X^._..X`..X`.`.).v.OX",
"OXC x..X.XXXXX.X.X.X.XoXXX:.) /..X.XF R..X`.`..X`..X`.`.`.I.j.OX",
"OXOX4.!.XX.X.XXX.X.X.XoX{.3.{.oXoXH.) .X.X.X.X`..X`.`..X).c.OXOX",
"OXOXE d.|.XXXX.XXXXX.XXX.X.XoX.X.XF.m..X.X.X.X`._..X.X`.C.x.OXOX",
"OXOXOXQ b.Q.m..XXX.XXX.X.XXXoX.X.X X.X.X.X.X.X.X`..X.XE.x.OXOXOX",
"OXOXOXOXa.g.) l..XXX.XXXXX.XXX.X.X.X.X.X`..X.X.XR.<.E.x.r.OXOXOX",
"OXOXOXOX%.%.%.J _ ^.XX.X.XXX.XoXoX.X.X.X.X.X|.Z./ _ r.w.OXOXOXOX",
"OXOXOXOXOX%.a.*.J U G.}..XoXoXoXoXoX.X.X).Z.-._ ..w.[ OXOXOXOXOX",
"OXOXOXOXOXOXOX=.g.g.P K &.z.G.P.H.}.G.<.) I -.X.' T OXOXOXOXOXOX",
"OXOXOXOXOXOXOXOX%.f.g.=.$.#.*. .L G.&._ %.w.{ Y OXOXOXOXOXOXOXOX",
"OXOXOXOXOXOXOXOXOXOX{ a.f.s.d.d.d.d.w.} ^ Y OXOXOXOXOXOXOXOXOXOX",
"OXOXOXOXOXOXOXOXOXOXOXOXOX! R ! R Y M OXOXOXOXOXOXOXOXOXOXOXOXOX"
};
