/* XPM */
static char *_515644267921[] = {
/* columns rows colors chars-per-pixel */
"16 16 184 2 ",
"   c #100F0D",
".  c #14130D",
"X  c #161510",
"o  c #1E1D16",
"O  c #2F2C1C",
"+  c #332F1B",
"@  c #3F3C2A",
"#  c #413F33",
"$  c #4F4A2B",
"%  c #494532",
"&  c #4C4A3C",
"*  c #56533D",
"=  c #6C653F",
"-  c #70693C",
";  c #4D4C42",
":  c #4E4D46",
">  c #5F5A42",
",  c #5A584E",
"<  c #645F46",
"1  c #696447",
"2  c #6B6751",
"3  c #78745F",
"4  c #817A53",
"5  c #92874B",
"6  c #958A4D",
"7  c #9C8D4C",
"8  c #9D8F4E",
"9  c #9A8E52",
"0  c #9E9151",
"q  c #999056",
"w  c #A2914D",
"e  c #AB924E",
"r  c #BD9D46",
"t  c #AA8C50",
"y  c #AC9A55",
"u  c #A1975A",
"i  c #A89C58",
"p  c #AA9E59",
"a  c #B39657",
"s  c #B29957",
"d  c #B99D5B",
"f  c #BA9E5D",
"g  c #BB9E5E",
"h  c #AEA25B",
"j  c #B7A154",
"k  c #B9A253",
"l  c #BCA553",
"z  c #BCA157",
"x  c #B2A55B",
"c  c #B7A75A",
"v  c #B2A05D",
"b  c #B6A25D",
"n  c #B7A95E",
"m  c #B6A95F",
"M  c #B7AA5E",
"N  c #8D8867",
"B  c #AF9B60",
"V  c #BB9F60",
"C  c #ABA26C",
"Z  c #B4A162",
"A  c #B1A661",
"S  c #B1A663",
"D  c #BAA264",
"F  c #B5AA63",
"G  c #B7AB63",
"H  c #BDAF64",
"J  c #BDAD67",
"K  c #BDAE67",
"L  c #C1A147",
"P  c #C0A64F",
"I  c #C2A65C",
"U  c #C4AA5C",
"Y  c #C4AD5D",
"T  c #C8AB58",
"R  c #D5B354",
"E  c #D6B257",
"W  c #DDBF5D",
"Q  c #C1B363",
"!  c #CDB262",
"~  c #C3B66A",
"^  c #C4B468",
"/  c #CDB76B",
"(  c #C7B96B",
")  c #C7BA6E",
"_  c #CDBF6A",
"`  c #C9BC6E",
"'  c #CEBE6C",
"]  c #D2B460",
"[  c #D1C26F",
"{  c #D5C66E",
"}  c #DECE6F",
"|  c #D1C171",
" . c #D7C872",
".. c #DBCC73",
"X. c #D8CA77",
"o. c #DACB77",
"O. c #DFCF77",
"+. c #D4C77B",
"@. c #E3C561",
"#. c #E4C767",
"$. c #E8CE67",
"%. c #E0C86A",
"&. c #E1CA6D",
"*. c #E5CD6F",
"=. c #EACE6E",
"-. c #ECD46D",
";. c #EDD66F",
":. c #E4CE70",
">. c #E7D776",
",. c #ECD571",
"<. c #EED675",
"1. c #E2D47E",
"2. c #E4D47D",
"3. c #E7D87F",
"4. c #E8D97B",
"5. c #ECDB7A",
"6. c #EEDD7A",
"7. c #E9D87C",
"8. c #E8D97E",
"9. c #EADB7F",
"0. c #F0DF7E",
"q. c #EEE07E",
"w. c #F4E077",
"e. c #FAE677",
"r. c #F3E179",
"t. c #F5E378",
"y. c #F4E37B",
"u. c #F7E579",
"i. c #F3E27F",
"p. c #F6E67D",
"a. c #FCE97B",
"s. c #FEEB7A",
"d. c #FFEB7B",
"f. c #FAE87E",
"g. c #FAE87F",
"h. c #FEEB7C",
"j. c #FCEA7E",
"k. c #FCEA7F",
"l. c #FFEC7C",
"z. c #FFED7C",
"x. c #FFEC7D",
"c. c #FFED7D",
"v. c #FFEC7E",
"b. c #FFEC7F",
"n. c #EADB81",
"m. c #EFE181",
"M. c #F6E682",
"N. c #F6E783",
"B. c #F7E785",
"V. c #FAE581",
"C. c #F9E681",
"Z. c #F9E683",
"A. c #FAE782",
"S. c #FBE981",
"D. c #F9E883",
"F. c #FBEA83",
"G. c #FDEA81",
"H. c #FCEA83",
"J. c #FEEC80",
"K. c #FFED80",
"L. c #FFED81",
"P. c #FFEE80",
"I. c #FFEF80",
"U. c #FFEC82",
"Y. c #FFED83",
"T. c #FFEE82",
"R. c #FFEE83",
"E. c #FAE884",
"W. c #FBEB85",
"Q. c #FCEA85",
"!. c #FCEB85",
"~. c #FEEA85",
"^. c #FEEB86",
"/. c #FEED85",
"(. c #FEEC86",
"). c #FFEC86",
"_. c #FFED86",
"`. c #FFEC87",
"'. c #FFED87",
"]. c #FFEE86",
"[. c #FFEF86",
"{. c #FFF186",
"}. c #FFF187",
"|. c None",
/* pixels */
"|.|.|.|.|.r P k j Y U |.|.|.|.|.",
"|.|.|.|.k 0 h h Q x M y z |.|.|.",
"|.|.L 7 H  .5.f.j.w.} M c e |.|.",
"|.|.w ~ i.`.L.b.c.{.f.+.F 0 T |.",
"|.%.` M.L.C.1.i.o.C N 3 ..u.-.|.",
"E C.{.{.{.) & 1 2 , ; 4 u.s.e.W ",
"#.^.`.`.3.S % @ < ; * [ b.s.s.$.",
"=.`.`.B.1.q X o # > u p.s.b.s.;.",
"@.^.`.{.4.S - .   = O i b.b.s.,.",
"R f.`.`.X.m.q.$ + 9 5 6 L.b.a.*.",
"|.<.`.`.S.`.3.G { M S.i.L.b.w.|.",
"|.] S.`.`.`.n.N.9.O.L.L.b.k.&.|.",
"|.|./ | C.`.`.{.W.G.L.G.>.:.! |.",
"|.|.V B K 9.S.`.`.W.5.' b I |.|.",
"|.|.|.|.D Z K ( | ^ v s |.|.|.|.",
"|.|.|.|.|.|.f f d s t |.|.|.|.|."
};
